<?xml version="1.0" encoding="UTF-8"?>
<svg width="50px" height="62px" viewBox="0 0 50 62" version="1.1" xmlns="http://www.w3.org/2000/svg" xmlns:xlink="http://www.w3.org/1999/xlink">
    <!-- Generator: Sketch 48.2 (47327) - http://www.bohemiancoding.com/sketch -->
    <title>if_Car-Accessories_8_2178886</title>
    <desc>Created with Sketch.</desc>
    <defs></defs>
    <g id="Page-1" stroke="none" stroke-width="1" fill="none" fill-rule="evenodd">
        <g id="if_Car-Accessories_8_2178886" fill="#34495E" fill-rule="nonzero">
            <path d="M48,21 C48,18.727 46.476,16.636 43.895,15.329 L41.908,4.403 L37,1.131 L37,2.65 L33.043,7.596 L32.072,15.364 C29.519,16.672 28,18.739 28,21 C28,22.832 28.965,24.473 30.555,25.708 C29.229,28.598 26,36.321 26,43 C26,48.964 28.086,55.814 29.33,59.366 C29.881,60.941 31.377,62 33.053,62 C35.229,62 37,60.229 37,58.053 L37,57.487 C37,57.063 36.932,56.643 36.797,56.238 C36.33,54.837 34,47.619 34,43 C34,35.688 36.755,29.678 37.612,27.987 C37.742,27.99 37.869,28 38,28 C38.132,28 38.259,27.99 38.389,27.987 C39.246,29.675 42,35.668 42,43 C42,47.619 39.67,54.837 39.203,56.238 C39.068,56.642 39,57.062 39,57.486 L39,58.052 C39,60.229 40.771,62 42.947,62 C44.622,62 46.119,60.941 46.67,59.366 C47.914,55.814 50,48.964 50,43 C50,36.321 46.771,28.598 45.445,25.708 C47.035,24.473 48,22.832 48,21 Z" id="Shape"></path>
            <path d="M15,47.76 L15,18.651 C18.1,16.864 20,13.604 20,10 C20,5.771 17.323,1.981 13.337,0.571 L12.004,0.099 L12,9 L8,9 L8,0.098 L6.667,0.569 C2.679,1.979 0,5.769 0,10 C0,13.604 1.9,16.864 5,18.651 L5,47.76 C3.112,49.274 2,51.569 2,54 C2,58.14 5.232,61.64 9.338,61.967 C9.556,61.989 9.776,62 10,62 C10.224,62 10.444,61.989 10.642,61.969 C14.768,61.64 18,58.14 18,54 C18,51.569 16.888,49.274 15,47.76 Z" id="Shape"></path>
        </g>
    </g>
</svg>