<?xml version="1.0" encoding="UTF-8"?>
<svg width="78px" height="57px" viewBox="0 0 78 57" version="1.1" xmlns="http://www.w3.org/2000/svg" xmlns:xlink="http://www.w3.org/1999/xlink">
    <!-- Generator: Sketch 48.2 (47327) - http://www.bohemiancoding.com/sketch -->
    <title>if_college_103269</title>
    <desc>Created with Sketch.</desc>
    <defs></defs>
    <g id="Page-1" stroke="none" stroke-width="1" fill="none" fill-rule="evenodd">
        <g id="if_college_103269" fill="#34495E" fill-rule="nonzero">
            <path d="M38.0685076,0.323608835 L1.09801156,19.7817519 C0.609284654,20.0389764 0.421614888,20.6436895 0.678839408,21.1324164 C0.772985943,21.3112949 0.919132872,21.4574419 1.09801139,21.5515885 L38.0868449,41.0193922 C38.659735,41.3209132 39.3431382,41.3264819 39.9208657,41.0343366 L61.916667,29.9115 C61.916667,29.9115 61.916667,40.4149 61.916667,45.6666 C61.916667,50.4097315 63.9413912,53.1281225 67.9908396,53.8217731 L67.9908379,53.8217834 C69.0429863,54.0020112 70.0420247,53.2951799 70.2222526,52.2430314 C70.2407175,52.1352352 70.25,52.0260662 70.25,51.9167 L70.25,51.9167 C70.25,50.8355444 69.5627669,49.8739483 68.5398695,49.5238365 C66.9021778,48.9633034 66.083333,47.6775558 66.083333,45.6666 C66.083333,39.4167 66.083333,27.5677 66.083333,27.5677 L76.9595212,21.5631479 C77.4430161,21.2962189 77.6185775,20.6878801 77.3516484,20.2043851 C77.2572375,20.0333764 77.1148089,19.8937631 76.9419496,19.8027846 L39.9314924,0.323608845 C39.3484116,0.0167244311 38.6515884,0.0167244275 38.0685076,0.323608835 Z M20.25,37.9313044 L20.25,44.6666 C20.25,46.7363 21.604537,49.5104 24.416667,50.9167 L38.147404,56.8013013 C38.688138,57.0330445 39.3034773,57.0149619 39.8296698,56.7518656 L51.500001,50.9167 C54.312129,49.5104 57.946383,46.7269 57.75,44.6666 C57.75,43.7758791 57.75,43.1078383 57.75,42.6624779 C57.75,41.0854201 57.75,39.5083623 57.75,37.9313045 L57.75,37.9313045 C57.75,37.3790198 57.3022847,36.9313045 56.75,36.9313045 C56.5985282,36.9313045 56.4490355,36.9657145 56.3128066,37.031937 L39.8743877,45.0228501 C39.3223478,45.2912033 38.6776542,45.2912034 38.1256143,45.0228501 L21.6871933,37.0319369 C21.1904864,36.7904817 20.5920877,36.9974041 20.3506325,37.4941111 C20.28441,37.6303399 20.25,37.7798326 20.25,37.9313044 Z" id="path7442"></path>
        </g>
    </g>
</svg>