<?xml version="1.0" encoding="UTF-8"?>
<svg width="51px" height="93px" viewBox="0 0 51 93" version="1.1" xmlns="http://www.w3.org/2000/svg" xmlns:xlink="http://www.w3.org/1999/xlink">
    <!-- Generator: Sketch 48.2 (47327) - http://www.bohemiancoding.com/sketch -->
    <title>if_police_103243</title>
    <desc>Created with Sketch.</desc>
    <defs></defs>
    <g id="Page-1" stroke="none" stroke-width="1" fill="none" fill-rule="evenodd">
        <g id="if_police_103243">
            <path d="M40,24.7545671 L40,27.7774239 L10,27.7774239 L10,24.7500004 L4.49172777,23.6481298 C3.67492961,23.4847381 2.91189407,23.1198705 2.27193101,22.5866694 C0.150381063,20.8190476 -0.136534367,17.666251 1.63108746,15.544701 L5.20970225,11.2495458 C8.63515815,7.13821634 12.9596726,3.86913447 17.8493265,1.69472362 L18.0839949,1.59036749 C22.6585054,-0.443900276 27.8882223,-0.405865174 32.4326605,1.69472362 C37.1480085,3.87431247 41.3574033,7.01262536 44.7924078,10.909529 L48.7614828,15.4123188 C49.3553222,16.0860106 49.7567538,16.9072069 49.9236014,17.7896285 C50.4366388,20.5029758 48.6529352,23.1184774 45.9395879,23.6315149 L40,24.7545671 Z M41.4639446,51.1034518 C47.8971664,51.4989641 50.0557018,61.6308539 50.0557018,67.7582346 L50.0557018,92.7581346 L12.0710522,92.7581346 L0.472367835,92.7581346 L0.472367835,67.7582346 C0.472367835,61.5081346 2.63026323,51.0915146 9.10394733,51.0915146 L41.4723678,51.0915146 L41.4639446,51.1034518 Z M10.416666,30.00002 L39.583334,30.00002 L39.583334,32.08335 C39.583334,40.13748 33.054083,46.66668 25,46.66668 C16.945916,46.66668 10.416666,40.13748 10.416666,32.08335 L10.416666,30.00002 Z" id="rect7805-5" fill="#34495E" fill-rule="nonzero"></path>
            <rect id="Rectangle" fill="#FFFFFF" x="10" y="77" width="30" height="4"></rect>
            <rect id="Rectangle-Copy" fill="#FFFFFF" x="10" y="84" width="30" height="4"></rect>
        </g>
    </g>
</svg>