<?xml version="1.0" encoding="UTF-8"?>
<svg width="61px" height="62px" viewBox="0 0 61 62" version="1.1" xmlns="http://www.w3.org/2000/svg" xmlns:xlink="http://www.w3.org/1999/xlink">
    <!-- Generator: Sketch 48.2 (47327) - http://www.bohemiancoding.com/sketch -->
    <title>if_Parking_751082</title>
    <desc>Created with Sketch.</desc>
    <defs></defs>
    <g id="Page-1" stroke="none" stroke-width="1" fill="none" fill-rule="evenodd">
        <g id="if_Parking_751082">
            <g id="Group" transform="translate(36.000000, 0.000000)" fill="#34495E">
                <rect id="Rectangle" x="9" y="0" width="7" height="25" rx="2"></rect>
                <path d="M0,14.25 L0,10.75 C0,9.78350169 0.699555078,9 1.5625,9 L23.4375,9 C24.3004449,9 25,9.78350169 25,10.75 L25,14.25 C25,15.2164983 24.3004449,16 23.4375,16 L1.5625,16 C0.699555078,16 0,15.2164983 0,14.25 Z" id="Rectangle-Copy"></path>
            </g>
            <path d="M54.779,29.155 L6.117,29.155 L16.214,11.712 C16.214,11.712 16.579,10.997 18.282,10.997 L28.73,10.997 C28.73,10.997 31.209,11.164 31.118,9.446 C31.026,8.533 30.524,7.91 29.444,7.91 C28.379,7.91 15.545,7.91 15.545,7.91 C15.545,7.91 14.89,7.94 14.176,9.172 C13.538,10.268 4.611,25.733 2.619,29.2 C1.174,29.458 0.063,30.872 0.063,32.592 L0.063,48.423 C0.063,50.339 1.417,51.86 3.089,51.86 L6.116,51.86 L6.116,59.449 C6.116,60.39 6.725,61.15 7.485,61.15 L12.366,61.15 C13.11,61.15 13.734,60.39 13.734,59.449 L13.734,51.86 L44.21,51.86 L44.21,59.507 C44.21,60.452 44.819,61.212 45.564,61.212 L50.385,61.212 C51.13,61.212 51.738,60.452 51.738,59.507 L51.738,51.86 L54.779,51.86 C56.453,51.86 57.806,50.339 57.806,48.423 L57.806,32.592 C57.807,30.69 56.453,29.155 54.779,29.155 Z" id="Shape" fill="#34495E" fill-rule="nonzero"></path>
            <path d="M11.44,35.282 C8.553,35.282 6.213,37.623 6.213,40.51 C6.213,43.398 8.553,45.738 11.44,45.738 C14.327,45.738 16.668,43.398 16.668,40.51 C16.668,37.623 14.328,35.282 11.44,35.282 Z" id="Shape" fill="#FFFFFF" fill-rule="nonzero"></path>
            <path d="M46.508,35.282 C43.621,35.282 41.28,37.623 41.28,40.51 C41.28,43.398 43.621,45.738 46.508,45.738 C49.395,45.738 51.736,43.398 51.736,40.51 C51.735,37.623 49.395,35.282 46.508,35.282 Z" id="Shape" fill="#FFFFFF" fill-rule="nonzero"></path>
        </g>
    </g>
</svg>