<?xml version="1.0" encoding="UTF-8"?>
<svg width="32px" height="32px" viewBox="0 0 32 32" version="1.1" xmlns="http://www.w3.org/2000/svg" xmlns:xlink="http://www.w3.org/1999/xlink">
    <!-- Generator: Sketch 48.2 (47327) - http://www.bohemiancoding.com/sketch -->
    <title>if_invoice_322451</title>
    <desc>Created with Sketch.</desc>
    <defs></defs>
    <g id="Page-1" stroke="none" stroke-width="1" fill="none" fill-rule="evenodd">
        <g id="if_invoice_322451" fill="#34495E" fill-rule="nonzero">
            <path d="M9.047,0 L7.047,22 L0.961,22 L0.961,27 C0.961,29.758 3.202,32 5.961,32 L23.961,32 C26.719,32 28.961,29.758 28.957,27.076 L31.039,0 L9.047,0 Z M5.78452941,29 C4.22594118,29 2.961,27.8783333 2.961,26.5 L2.961,24 L18.0198235,24 L18.0198235,26.5 C18.0198235,27.4375 18.369,28.3033333 18.961,29 L5.78452941,29 Z M24.1,12 L13.979,12 L14.166,10 L24.256,10 L24.104,12 L24.1,12 Z M24.406,8 L14.342,8 L14.527,6 L24.561,6 L24.406,8 Z M15.793,16 L13.614,16 L13.797,14 L15.943,14 L15.793,16 Z M17.797,14 L21.943,14 L21.793,16 L17.615,16 L17.797,14 Z" id="Shape"></path>
        </g>
    </g>
</svg>