<?xml version="1.0" encoding="UTF-8"?>
<svg width="29px" height="22px" viewBox="0 0 29 22" version="1.1" xmlns="http://www.w3.org/2000/svg" xmlns:xlink="http://www.w3.org/1999/xlink">
    <!-- Generator: Sketch 48.2 (47327) - http://www.bohemiancoding.com/sketch -->
    <title>if_coin-money-dollar-currency_2009869 (1)</title>
    <desc>Created with Sketch.</desc>
    <defs></defs>
    <g id="Page-1" stroke="none" stroke-width="1" fill="none" fill-rule="evenodd">
        <g id="if_coin-money-dollar-currency_2009869-(1)" fill="#34495E" fill-rule="nonzero">
            <path d="M20.751953,0.3632812 L20.28125,0.5292969 C13.679984,2.8580969 7.0797899,5.186825 0.4785156,7.515625 L0.0058594,7.681641 L3.9980469,19 L4,19 L17.279297,19 C17.106608,19.295387 17,19.635226 17,20 C17,21.0994 17.90065,22 19,22 L27,22 C28.09935,22 29,21.0994 29,20 C29,19.401713 28.727029,18.867453 28.306641,18.5 C28.727569,18.132545 29,17.598785 29,17 C29,16.401713 28.727029,15.867453 28.306641,15.5 C28.727569,15.132545 29,14.598785 29,14 C29,12.9007 28.09935,12 27,12 L26,12 L26,7 L23.095703,7 L20.751953,0.3632812 Z M20.142578,1.6386719 L22.033203,7 L20.974609,7 L20.210938,4.8378906 L19.806641,4.8945312 C19.004807,5.006831 18.219677,4.6348656 17.804688,3.9472656 L17.59375,3.5976562 L7.9511719,7 L4.9453125,7 C10.011053,5.212806 15.076567,3.4258661 20.142578,1.6386719 Z M4,7.333984 L4,10.277344 C3.8762071,10.405722 3.7417102,10.523378 3.5878906,10.615234 L3.2363281,10.824219 L4,12.994141 L4,15.998047 L1.28125,8.292969 C2.1875298,7.97325 3.0937575,7.653703 4,7.333984 Z M5,8 L25,8 L25,12 L24,12 L24,11.041016 L23.599609,10.960938 C22.806084,10.800137 22.189969,10.186991 22.027344,9.400391 L21.943359,9 L8.0585938,9 L7.9746094,9.398438 C7.8111994,10.184837 7.1941178,10.798884 6.4003906,10.958984 L6,11.039062 L6,14.951172 L6.4003906,15.03125 C7.196806,15.19265 7.8145621,15.807656 7.9746094,16.597656 L8.0566406,16.998047 L14.980469,16.998047 C14.987153,16.99808 14.993309,17 15,17 C15.006686,17 15.012852,16.99808 15.019531,16.998047 L17,16.998047 C17,16.998047 17,17 17,17 C17,17.365748 17.107736,17.704097 17.28125,18 L5,18 L5,8 Z M14.695312,10.03125 L14.695312,10.578125 C14.497184,10.602462 14.318454,10.6499 14.158203,10.720703 C13.997953,10.791448 13.86168,10.881598 13.748047,10.992188 C13.637326,11.102777 13.551419,11.234389 13.490234,11.384766 C13.431965,11.535142 13.402344,11.701419 13.402344,11.882812 C13.402344,12.079656 13.434938,12.251967 13.501953,12.402344 C13.571881,12.552721 13.672581,12.685777 13.800781,12.800781 C13.931896,12.915785 14.087924,13.017262 14.271484,13.103516 C14.457958,13.187562 14.667299,13.26199 14.900391,13.326172 C15.07521,13.383674 15.225283,13.44199 15.347656,13.503906 C15.472945,13.565823 15.572684,13.634079 15.648438,13.707031 C15.727108,13.780042 15.783398,13.85736 15.818359,13.941406 C15.853321,14.025452 15.871094,14.117301 15.871094,14.216797 L15.871094,14.21875 C15.871094,14.338227 15.850348,14.44568 15.806641,14.542969 C15.762936,14.638051 15.697777,14.720467 15.613281,14.789062 C15.531699,14.855219 15.430967,14.907559 15.308594,14.945312 C15.189134,14.980743 15.050908,14.998047 14.896484,14.998047 C14.785766,14.998047 14.675172,14.982166 14.564453,14.953125 C14.453734,14.924374 14.353995,14.873792 14.263672,14.800781 C14.17335,14.727771 14.100283,14.629692 14.044922,14.505859 C13.98956,14.382027 13.960938,14.227077 13.960938,14.039062 L13.193359,14.039062 C13.193359,14.288993 13.231879,14.502513 13.310547,14.681641 C13.389215,14.858561 13.493886,15.005777 13.625,15.123047 C13.759028,15.240258 13.912079,15.330662 14.083984,15.392578 C14.25589,15.454669 14.433628,15.493924 14.617188,15.513672 L14.617188,15.960938 C13.128626,15.77301 11.982429,14.531037 11.982422,13 C11.982429,11.442376 13.168879,10.18443 14.695312,10.03125 Z M15.3125,10.037109 C16.20073,10.129782 16.976192,10.584604 17.464844,11.271484 C17.645808,11.525776 17.84519,11.893864 17.962891,12.298828 C17.389114,12.651555 17,13.281295 17,14 C17,14.354572 17.10181,14.682984 17.265625,14.972656 C17.241244,15.000368 17.220692,15.031819 17.195312,15.058594 C16.693765,15.587769 16.000329,15.919242 15.224609,15.976562 L15.224609,15.513672 C15.443133,15.491542 15.639633,15.449143 15.814453,15.382812 C15.989272,15.316424 16.137392,15.227777 16.259766,15.117188 C16.382137,15.006656 16.477907,14.875044 16.544922,14.724609 C16.611937,14.572025 16.644531,14.401159 16.644531,14.210938 C16.644531,14.016302 16.612928,13.845435 16.548828,13.697266 C16.484728,13.549096 16.390912,13.417485 16.265625,13.304688 C16.140338,13.19189 15.984342,13.093812 15.800781,13.009766 C15.617222,12.923512 15.406888,12.845882 15.167969,12.777344 C14.981495,12.717634 14.823513,12.657678 14.695312,12.595703 C14.570025,12.53158 14.469293,12.463323 14.390625,12.392578 C14.311954,12.321775 14.253711,12.244202 14.21875,12.160156 C14.186696,12.073903 14.171875,11.977211 14.171875,11.871094 C14.171875,11.75609 14.186696,11.65178 14.21875,11.556641 C14.253712,11.461559 14.306032,11.380784 14.373047,11.314453 C14.442974,11.246031 14.528882,11.194004 14.630859,11.15625 C14.732838,11.118496 14.852332,11.099609 14.992188,11.099609 C15.126216,11.099609 15.246671,11.124668 15.351562,11.175781 C15.456451,11.226662 15.543351,11.298004 15.613281,11.388672 C15.683211,11.479339 15.736523,11.585093 15.771484,11.708984 C15.809361,11.832817 15.828125,11.969018 15.828125,12.117188 L16.591797,12.117188 C16.591797,11.668264 16.480211,11.3154 16.255859,11.056641 C16.034421,10.7955 15.720411,10.63721 15.3125,10.582031 L15.3125,10.037109 Z M18.8,13 L25.2,13 C25.6501168,13 26,13.2187 26,13.5 C26,13.78135 25.6501168,14 25.2,14 L18.8,14 C18.3498832,14 18,13.78135 18,13.5 C18,13.2187 18.3498832,13 18.8,13 Z M18.8,16 L25.2,16 C25.6501168,16 26,16.2187 26,16.5 C26,16.78135 25.6501168,17 25.2,17 L18.8,17 C18.3498832,17 18,16.78135 18,16.5 C18,16.2187 18.3498832,16 18.8,16 Z M18.8,19 L25.2,19 C25.6501168,19 26,19.2187 26,19.5 C26,19.78135 25.6501168,20 25.2,20 L18.8,20 C18.3498832,20 18,19.78135 18,19.5 C18,19.2187 18.3498832,19 18.8,19 Z" id="path5296-6"></path>
        </g>
    </g>
</svg>