<?xml version="1.0" encoding="UTF-8"?>
<svg width="62px" height="62px" viewBox="0 0 62 62" version="1.1" xmlns="http://www.w3.org/2000/svg" xmlns:xlink="http://www.w3.org/1999/xlink">
    <!-- Generator: Sketch 48.2 (47327) - http://www.bohemiancoding.com/sketch -->
    <title>if_Car-Accessories_20_2178870</title>
    <desc>Created with Sketch.</desc>
    <defs></defs>
    <g id="Page-1" stroke="none" stroke-width="1" fill="none" fill-rule="evenodd">
        <g id="if_Car-Accessories_20_2178870" fill-rule="nonzero">
            <path d="M60.583,11.659 L54,2.256 L47.417,11.659 C46.49,12.984 46,14.539 46,16.157 C46,20.481 49.518,24 53.843,24 L54.157,24 C58.482,24 62,20.481 62,16.157 C62,14.539 61.51,12.984 60.583,11.659 Z" id="Shape" fill="#34495E"></path>
            <path d="M52,31.764 L52,57 C52,58.654 50.654,60 49,60 C47.346,60 46,58.654 46,57 L46,41 C46,38.243 43.757,36 41,36 L38,36 L38,8 L40,8 C41.103,8 42,7.103 42,6 L42,2 C42,0.897 41.103,0 40,0 L2,0 C0.897,0 0,0.897 0,2 L0,6 C0,7.103 0.897,8 2,8 L4,8 L4,62 L38,62 L38,38 L41,38 C42.654,38 44,39.346 44,41 L44,57 C44,59.757 46.243,62 49,62 C51.757,62 54,59.757 54,57 L54,39 L56,39 C57.103,39 58,38.103 58,37 L58,33 C58,31.897 57.103,31 56,31 L54.618,31 L55.618,29 L59,29 L59,27 L54.382,27 L52,31.764 Z M56,37 L54,37 L54,33 L56,33 L56,37 Z" id="Shape" fill="#34495E"></path>
            <path d="M10,13 C10,12.448 10.449,12 11,12 L31,12 C31.551,12 32,12.448 32,13 L32,21 C32,21.552 31.551,22 31,22 L11,22 C10.449,22 10,21.552 10,21 L10,13 Z" id="Shape" fill="#FFFFFF"></path>
            <rect id="Rectangle-path" fill="#FFFFFF" x="10" y="26" width="2" height="2"></rect>
            <rect id="Rectangle-path" fill="#FFFFFF" x="14" y="26" width="2" height="2"></rect>
            <rect id="Rectangle-path" fill="#FFFFFF" x="18" y="26" width="2" height="2"></rect>
            <rect id="Rectangle-path" fill="#FFFFFF" x="22" y="26" width="2" height="2"></rect>
            <rect id="Rectangle-path" fill="#FFFFFF" x="26" y="26" width="2" height="2"></rect>
            <rect id="Rectangle-path" fill="#FFFFFF" x="30" y="26" width="2" height="2"></rect>
        </g>
    </g>
</svg>