<?xml version="1.0" encoding="utf-8"?>
<!-- Generator: Adobe Illustrator 16.0.0, SVG Export Plug-In . SVG Version: 6.00 Build 0)  -->
<!DOCTYPE svg PUBLIC "-//W3C//DTD SVG 1.1//EN" "http://www.w3.org/Graphics/SVG/1.1/DTD/svg11.dtd">
<svg version="1.1" id="Шар_1" xmlns="http://www.w3.org/2000/svg" xmlns:xlink="http://www.w3.org/1999/xlink" x="0px" y="0px"
	 width="37.381px" height="37.381px" viewBox="0 0 37.381 37.381" enable-background="new 0 0 37.381 37.381" xml:space="preserve">
<path fill="#2A71B4" d="M32.394,10.194c-1.009,0.446-2.092,0.75-3.229,0.885c1.16-0.695,2.051-1.796,2.47-3.109
	c-1.085,0.646-2.289,1.111-3.569,1.364c-1.025-1.092-2.485-1.775-4.104-1.775c-3.104,0-5.622,2.519-5.622,5.622
	c0,0.439,0.05,0.87,0.146,1.281c-4.67-0.236-8.812-2.474-11.585-5.875c-0.485,0.832-0.763,1.797-0.763,2.826
	c0,1.949,0.993,3.671,2.501,4.68c-0.923-0.031-1.788-0.284-2.548-0.704c0,0.023,0,0.045,0,0.07c0,2.723,1.94,4.996,4.511,5.513
	c-0.473,0.127-0.968,0.196-1.48,0.196c-0.363,0-0.716-0.038-1.061-0.103c0.718,2.233,2.792,3.858,5.253,3.906
	c-1.925,1.505-4.35,2.405-6.982,2.405c-0.455,0-0.902-0.028-1.342-0.078c2.489,1.594,5.441,2.525,8.619,2.525
	c10.339,0,15.995-8.565,15.995-15.995c0-0.244-0.007-0.487-0.019-0.728C30.686,12.311,31.638,11.323,32.394,10.194L32.394,10.194z"
	/>
</svg>
