<?xml version="1.0" encoding="utf-8"?>
<!-- Generator: Adobe Illustrator 16.0.0, SVG Export Plug-In . SVG Version: 6.00 Build 0)  -->
<!DOCTYPE svg PUBLIC "-//W3C//DTD SVG 1.1//EN" "http://www.w3.org/Graphics/SVG/1.1/DTD/svg11.dtd">
<svg version="1.1" id="Шар_1" xmlns="http://www.w3.org/2000/svg" xmlns:xlink="http://www.w3.org/1999/xlink" x="0px" y="0px"
	 width="37.381px" height="37.381px" viewBox="0 0 37.381 37.381" enable-background="new 0 0 37.381 37.381" xml:space="preserve">
<path fill="#1E4B7A" d="M34.548,24.759c-1.028-1.234-2.241-2.29-3.387-3.406c-1.036-1.011-1.101-1.597-0.27-2.76
	c0.907-1.271,1.883-2.493,2.798-3.758c0.854-1.184,1.729-2.364,2.18-3.777c0.285-0.899,0.032-1.3-0.891-1.456
	c-0.16-0.027-0.324-0.029-0.485-0.029l-5.479-0.005c-0.675-0.012-1.048,0.281-1.285,0.881c-0.323,0.809-0.654,1.615-1.039,2.396
	c-0.869,1.771-1.843,3.479-3.206,4.927c-0.302,0.32-0.633,0.724-1.136,0.559c-0.63-0.23-0.813-1.267-0.805-1.618l-0.006-6.324
	c-0.122-0.901-0.321-1.306-1.218-1.481l-5.692,0.002c-0.759,0-1.14,0.295-1.545,0.769c-0.234,0.274-0.305,0.453,0.177,0.544
	c0.944,0.18,1.478,0.792,1.618,1.737c0.227,1.515,0.209,3.033,0.079,4.552c-0.038,0.445-0.114,0.887-0.291,1.302
	c-0.273,0.65-0.719,0.784-1.304,0.383c-0.526-0.362-0.897-0.874-1.263-1.39c-1.365-1.928-2.453-4.008-3.342-6.191
	C8.5,9.977,8.057,9.594,7.389,9.586c-1.644-0.027-3.288-0.03-4.933,0.002c-0.987,0.017-1.282,0.499-0.881,1.396
	c1.791,3.982,3.783,7.854,6.385,11.384c1.336,1.81,2.868,3.405,4.849,4.541c2.246,1.283,4.663,1.669,7.207,1.549
	c1.193-0.055,1.552-0.364,1.606-1.553c0.036-0.812,0.129-1.621,0.528-2.353c0.395-0.715,0.989-0.853,1.677-0.407
	c0.345,0.226,0.634,0.509,0.908,0.81c0.67,0.731,1.315,1.49,2.014,2.198c0.873,0.889,1.906,1.414,3.208,1.307h5.035
	c0.811-0.053,1.23-1.046,0.768-1.952C35.433,25.872,35.003,25.304,34.548,24.759L34.548,24.759z"/>
</svg>
